<svg width="109" height="29" viewBox="0 0 109 29" fill="none" xmlns="http://www.w3.org/2000/svg">
<path fill-rule="evenodd" clip-rule="evenodd" d="M82.2754 0.572021H108.55V28.6956H82.2754V0.572021ZM102.311 20.503H93.9109L102.311 8.48638V4.87026H88.5145V8.76455H96.8594L88.5145 20.7812V24.3973H102.311V20.503Z" fill="url(#paint0_linear)"/>
<path d="M8.71064 25.1349C7.21118 25.1349 5.86751 24.8915 4.67962 24.4046C3.49174 23.9178 2.53754 23.1973 1.81702 22.2431C1.11597 21.2889 0.745978 20.1399 0.707031 18.7963H6.02329C6.10119 19.5557 6.36408 20.1399 6.81197 20.5489C7.25986 20.9383 7.84407 21.1331 8.56458 21.1331C9.30458 21.1331 9.88878 20.9676 10.3172 20.6365C10.7456 20.286 10.9598 19.8089 10.9598 19.2052C10.9598 18.6989 10.7846 18.2802 10.434 17.9492C10.103 17.6181 9.68431 17.3455 9.178 17.1313C8.69116 16.9171 7.99012 16.6736 7.07486 16.401C5.75066 15.9921 4.66989 15.5831 3.83253 15.1742C2.99517 14.7652 2.27465 14.1616 1.67097 13.3632C1.06729 12.5647 0.765452 11.5229 0.765452 10.2377C0.765452 8.32926 1.45676 6.83954 2.83938 5.76849C4.222 4.67798 6.02329 4.13272 8.24327 4.13272C10.5022 4.13272 12.323 4.67798 13.7056 5.76849C15.0882 6.83954 15.8282 8.33899 15.9256 10.2669H10.5217C10.4827 9.60477 10.2393 9.08872 9.79141 8.71873C9.34352 8.32926 8.76906 8.13452 8.06801 8.13452C7.46433 8.13452 6.97749 8.30005 6.6075 8.6311C6.2375 8.94267 6.0525 9.4003 6.0525 10.004C6.0525 10.6661 6.36408 11.1821 6.98723 11.5521C7.61038 11.9221 8.58406 12.3213 9.90825 12.7497C11.2325 13.1976 12.3035 13.626 13.1214 14.035C13.9587 14.4439 14.6793 15.0379 15.2829 15.8168C15.8866 16.5958 16.1885 17.5986 16.1885 18.8255C16.1885 19.9939 15.8866 21.0552 15.2829 22.0094C14.6987 22.9636 13.8419 23.7231 12.7124 24.2878C11.583 24.8525 10.249 25.1349 8.71064 25.1349Z" fill="white"/>
<path d="M26.2573 4.42482V24.9304H21.2624V4.42482H26.2573Z" fill="white"/>
<path d="M55.0992 4.42482V24.9304H50.1043V12.6329L45.5183 24.9304H41.4873L36.8721 12.6037V24.9304H31.8771V4.42482H37.7776L43.532 18.621L49.228 4.42482H55.0992Z" fill="white"/>
<path d="M78.2758 4.42482L71.1777 18.1536V24.9304H66.1827V18.1536L59.0846 4.42482H64.7514L68.724 13.0126L72.6674 4.42482H78.2758Z" fill="white"/>
<defs>
<linearGradient id="paint0_linear" x1="95.4129" y1="0.572021" x2="95.4129" y2="28.6956" gradientUnits="userSpaceOnUse">
<stop stop-color="#9453FB"/>
<stop offset="0.546875" stop-color="#BD93FF"/>
<stop offset="1" stop-color="#384DBC"/>
</linearGradient>
</defs>
</svg>
